<?xml version="1.0" encoding="UTF-8"?>
<!DOCTYPE svg PUBLIC "-//W3C//DTD SVG 1.1//EN" "http://www.w3.org/Graphics/SVG/1.1/DTD/svg11.dtd">
<svg xmlns="http://www.w3.org/2000/svg" version="1.1" width="1366px" height="768px" style="shape-rendering:geometricPrecision; text-rendering:geometricPrecision; image-rendering:optimizeQuality; fill-rule:evenodd; clip-rule:evenodd" xmlns:xlink="http://www.w3.org/1999/xlink">
<g><path style="opacity:1" fill="#f7f9fb" d="M -0.5,-0.5 C 454.833,-0.5 910.167,-0.5 1365.5,-0.5C 1365.5,255.5 1365.5,511.5 1365.5,767.5C 910.167,767.5 454.833,767.5 -0.5,767.5C -0.5,511.5 -0.5,255.5 -0.5,-0.5 Z"/></g>
<g><path style="opacity:1" fill="#3b82f6" d="M 673.5,243.5 C 710.676,242.151 733.509,259.485 742,295.5C 743.456,333.37 725.623,355.87 688.5,363C 698.833,363.333 709.167,363.667 719.5,364C 731.406,367.573 738.906,375.406 742,387.5C 742.667,424.833 742.667,462.167 742,499.5C 737.609,514.125 727.776,522.291 712.5,524C 716.612,525.779 719.778,528.612 722,532.5C 722.667,542.833 722.667,553.167 722,563.5C 716.705,573.723 708.872,576.223 698.5,571C 695.894,569.062 694.061,566.562 693,563.5C 692.333,553.167 692.333,542.833 693,532.5C 695.222,528.612 698.388,525.779 702.5,524C 689.167,523.333 675.833,523.333 662.5,524C 666.612,525.779 669.778,528.612 672,532.5C 672.667,542.833 672.667,553.167 672,563.5C 666.705,573.723 658.872,576.223 648.5,571C 645.894,569.062 644.061,566.562 643,563.5C 642.333,553.167 642.333,542.833 643,532.5C 645.222,528.612 648.388,525.779 652.5,524C 637.234,522.294 627.401,514.128 623,499.5C 622.024,460.787 622.358,422.12 624,383.5C 627.5,374.667 633.667,368.5 642.5,365C 652.761,363.74 663.094,363.073 673.5,363C 635.711,352.94 619.211,328.44 624,289.5C 631.741,264.588 648.241,249.255 673.5,243.5 Z"/></g>
<g><path style="opacity:1" fill="#3c82f6" d="M 580.5,383.5 C 595.586,381.623 606.086,387.623 612,401.5C 612.667,422.833 612.667,444.167 612,465.5C 604.829,482.322 592.663,487.488 575.5,481C 569.497,477.329 565.331,472.162 563,465.5C 562.333,444.167 562.333,422.833 563,401.5C 566.353,392.982 572.186,386.982 580.5,383.5 Z"/></g>
<g><path style="opacity:1" fill="#3c82f6" d="M 770.5,383.5 C 785.586,381.623 796.086,387.623 802,401.5C 802.667,422.833 802.667,444.167 802,465.5C 794.829,482.322 782.663,487.488 765.5,481C 759.497,477.329 755.331,472.162 753,465.5C 752.333,444.167 752.333,422.833 753,401.5C 756.353,392.982 762.186,386.982 770.5,383.5 Z"/></g>
</svg>
